<svg width="139" height="139" viewBox="0 0 139 139" role="img" fill="none" xmlns="http://www.w3.org/2000/svg">
<rect width="139" height="139" rx="24" fill="black"/>
<path d="M24.3608 61.725C24.2715 60.879 23.895 60.2203 23.2314 59.7489C22.5742 59.2774 21.7192 59.0417 20.6664 59.0417C19.9262 59.0417 19.2913 59.1547 18.7618 59.3808C18.2322 59.6068 17.827 59.9136 17.5462 60.301C17.2655 60.6885 17.1219 61.1309 17.1155 61.6282C17.1155 62.0415 17.2081 62.3999 17.3931 62.7034C17.5845 63.007 17.8429 63.2653 18.1684 63.4784C18.4938 63.685 18.8543 63.8594 19.2499 64.0015C19.6455 64.1436 20.0443 64.263 20.4463 64.3599L22.2839 64.8249C23.024 64.9993 23.7355 65.235 24.4182 65.532C25.1073 65.8291 25.7231 66.2037 26.2654 66.6557C26.8142 67.1078 27.2481 67.6535 27.5671 68.2928C27.8861 68.9322 28.0456 69.6813 28.0456 70.5402C28.0456 71.7027 27.7521 72.7263 27.1651 73.611C26.5781 74.4893 25.7295 75.1771 24.6192 75.6744C23.5154 76.1652 22.1786 76.4106 20.609 76.4106C19.084 76.4106 17.76 76.1716 16.637 75.6937C15.5204 75.2158 14.6462 74.5184 14.0145 73.6013C13.3892 72.6843 13.051 71.5671 13 70.2496H16.4934C16.5445 70.9406 16.755 71.5154 17.1251 71.9739C17.4952 72.4324 17.9769 72.7747 18.5703 73.0007C19.1701 73.2268 19.8401 73.3398 20.5802 73.3398C21.3523 73.3398 22.0287 73.2235 22.6093 72.9911C23.1963 72.7521 23.6557 72.4228 23.9875 72.003C24.3193 71.5768 24.4884 71.0795 24.4948 70.5112C24.4884 69.9945 24.3385 69.5683 24.045 69.2325C23.7514 68.8902 23.3399 68.6061 22.8103 68.38C22.2871 68.1475 21.6745 67.9409 20.9727 67.7601L18.7426 67.1788C17.1283 66.7591 15.8522 66.123 14.9142 65.2705C13.9826 64.4116 13.5168 63.2717 13.5168 61.851C13.5168 60.6821 13.8295 59.6585 14.4548 58.7802C15.0865 57.9019 15.9447 57.2206 17.0294 56.7362C18.1141 56.2454 19.3424 56 20.7142 56C22.1052 56 23.3239 56.2454 24.3704 56.7362C25.4232 57.2206 26.2495 57.8954 26.8493 58.7608C27.449 59.6197 27.7585 60.6078 27.7777 61.725H24.3608Z" fill="white"/>
<path d="M37.4707 76.4009C36.035 76.4009 34.7908 76.0812 33.738 75.4419C32.6852 74.8025 31.8685 73.9081 31.2878 72.7586C30.7136 71.609 30.4264 70.2658 30.4264 68.7288C30.4264 67.1918 30.7136 65.8453 31.2878 64.6893C31.8685 63.5333 32.6852 62.6356 33.738 61.9963C34.7908 61.3569 36.035 61.0373 37.4707 61.0373C38.9064 61.0373 40.1506 61.3569 41.2034 61.9963C42.2562 62.6356 43.0697 63.5333 43.644 64.6893C44.2246 65.8453 44.515 67.1918 44.515 68.7288C44.515 70.2658 44.2246 71.609 43.644 72.7586C43.0697 73.9081 42.2562 74.8025 41.2034 75.4419C40.1506 76.0812 38.9064 76.4009 37.4707 76.4009ZM37.4898 73.5917C38.2683 73.5917 38.9191 73.3753 39.4423 72.9426C39.9655 72.5035 40.3548 71.9158 40.61 71.1796C40.8716 70.4434 41.0024 69.6232 41.0024 68.7191C41.0024 67.8085 40.8716 66.9851 40.61 66.2489C40.3548 65.5062 39.9655 64.9153 39.4423 64.4762C38.9191 64.037 38.2683 63.8174 37.4898 63.8174C36.6923 63.8174 36.0287 64.037 35.4991 64.4762C34.9759 64.9153 34.5834 65.5062 34.3218 66.2489C34.0666 66.9851 33.939 67.8085 33.939 68.7191C33.939 69.6232 34.0666 70.4434 34.3218 71.1796C34.5834 71.9158 34.9759 72.5035 35.4991 72.9426C36.0287 73.3753 36.6923 73.5917 37.4898 73.5917Z" fill="white"/>
<path d="M53.8491 82C52.6049 82 51.5361 81.8289 50.6428 81.4866C49.7495 81.1508 49.0317 80.6987 48.4893 80.1304C47.947 79.5621 47.5705 78.9324 47.36 78.2414L50.4801 77.4762C50.6205 77.7668 50.8247 78.0541 51.0927 78.3383C51.3606 78.6289 51.7211 78.8679 52.1742 79.0551C52.6336 79.2489 53.211 79.3458 53.9065 79.3458C54.8892 79.3458 55.7027 79.1036 56.3471 78.6192C56.9916 78.1413 57.3138 77.3535 57.3138 76.2556V73.4367H57.1415C56.9629 73.7983 56.7013 74.1696 56.3567 74.5507C56.0185 74.9317 55.5687 75.2514 55.0072 75.5097C54.4521 75.768 53.7534 75.8972 52.9111 75.8972C51.7818 75.8972 50.7577 75.6292 49.8388 75.0931C48.9264 74.5507 48.199 73.7434 47.6567 72.6714C47.1207 71.5929 46.8527 70.2432 46.8527 68.6222C46.8527 66.9883 47.1207 65.6095 47.6567 64.4858C48.199 63.3557 48.9296 62.5 49.8484 61.9188C50.7672 61.3311 51.7913 61.0373 52.9207 61.0373C53.7821 61.0373 54.4904 61.1858 55.0455 61.4829C55.607 61.7735 56.0536 62.1254 56.3854 62.5387C56.7172 62.9456 56.9693 63.3299 57.1415 63.6915H57.333V61.231H60.7498V76.3525C60.7498 77.6247 60.4499 78.6773 59.8501 79.5104C59.2503 80.3435 58.4304 80.9667 57.3904 81.38C56.3503 81.7933 55.1699 82 53.8491 82ZM53.8778 73.1461C54.6116 73.1461 55.2369 72.9652 55.7537 72.6036C56.2706 72.2419 56.663 71.7221 56.931 71.044C57.199 70.3659 57.333 69.5522 57.333 68.6028C57.333 67.6664 57.199 66.8462 56.931 66.1423C56.6694 65.4384 56.2801 64.8927 55.7633 64.5052C55.2529 64.1113 54.6244 63.9143 53.8778 63.9143C53.1058 63.9143 52.4613 64.1177 51.9445 64.5246C51.4276 64.9314 51.0384 65.4901 50.7768 66.2004C50.5152 66.9044 50.3844 67.7052 50.3844 68.6028C50.3844 69.5134 50.5152 70.311 50.7768 70.9955C51.0448 71.6736 51.4372 72.2032 51.954 72.5842C52.4773 72.9588 53.1185 73.1461 53.8778 73.1461Z" fill="white"/>
<path d="M64.3007 76.1103V61.231H67.6601V63.7109H67.8132C68.0812 62.852 68.5406 62.19 69.1914 61.725C69.8487 61.2536 70.5984 61.0179 71.4406 61.0179C71.6321 61.0179 71.8458 61.0276 72.0819 61.0469C72.3244 61.0599 72.5254 61.0825 72.6849 61.1148V64.3405C72.5381 64.2889 72.3052 64.2437 71.9862 64.2049C71.6735 64.1597 71.3704 64.1371 71.0769 64.1371C70.4452 64.1371 69.8774 64.276 69.3733 64.5537C68.8756 64.8249 68.4832 65.2027 68.1961 65.687C67.9089 66.1714 67.7654 66.73 67.7654 67.3629V76.1103H64.3007Z" fill="white"/>
<path d="M78.9539 76.4106C78.0223 76.4106 77.1832 76.2427 76.4367 75.9069C75.6965 75.5646 75.1095 75.0609 74.6756 74.3957C74.2481 73.7305 74.0344 72.9103 74.0344 71.9352C74.0344 71.0956 74.1875 70.4014 74.4938 69.8525C74.8001 69.3035 75.218 68.8644 75.7476 68.535C76.2772 68.2057 76.8738 67.957 77.5374 67.7891C78.2073 67.6148 78.8996 67.4888 79.6143 67.4113C80.4757 67.3209 81.1744 67.2402 81.7103 67.1692C82.2463 67.0917 82.6355 66.9754 82.878 66.8204C83.1268 66.659 83.2513 66.4103 83.2513 66.0745V66.0164C83.2513 65.2866 83.0375 64.7216 82.61 64.3212C82.1825 63.9208 81.5668 63.7206 80.7628 63.7206C79.9142 63.7206 79.241 63.9078 78.7433 64.2824C78.252 64.657 77.9202 65.0994 77.7479 65.6095L74.5129 65.1446C74.7682 64.2404 75.1893 63.4848 75.7763 62.8778C76.3633 62.2643 77.0812 61.8058 77.9298 61.5022C78.7784 61.1923 79.7164 61.0373 80.7437 61.0373C81.4519 61.0373 82.157 61.1212 82.8589 61.2891C83.5607 61.457 84.202 61.7347 84.7826 62.1222C85.3633 62.5032 85.8291 63.0231 86.18 63.6818C86.5373 64.3405 86.716 65.1639 86.716 66.152V76.1103H83.3853V74.0663H83.2704C83.0599 74.4796 82.7632 74.8671 82.3803 75.2288C82.0039 75.584 81.5285 75.8713 80.9542 76.0909C80.3864 76.304 79.7196 76.4106 78.9539 76.4106ZM79.8536 73.8338C80.5491 73.8338 81.152 73.695 81.6625 73.4173C82.1729 73.1331 82.5654 72.7586 82.8397 72.2936C83.1205 71.8286 83.2608 71.3217 83.2608 70.7727V69.0194C83.1524 69.1098 82.9673 69.1937 82.7057 69.2712C82.4505 69.3487 82.1634 69.4165 81.8443 69.4747C81.5253 69.5328 81.2095 69.5845 80.8968 69.6297C80.5841 69.6749 80.313 69.7136 80.0833 69.7459C79.5664 69.8169 79.1038 69.9332 78.6955 70.0946C78.2871 70.2561 77.9649 70.4821 77.7288 70.7727C77.4927 71.0569 77.3747 71.425 77.3747 71.877C77.3747 72.5229 77.6076 73.0104 78.0734 73.3398C78.5391 73.6692 79.1325 73.8338 79.8536 73.8338Z" fill="white"/>
<path d="M90.1998 81.69V61.231H93.6071V63.6915H93.8081C93.9868 63.3299 94.2388 62.9456 94.5642 62.5387C94.8896 62.1254 95.3299 61.7735 95.885 61.4829C96.4401 61.1858 97.1484 61.0373 98.0098 61.0373C99.1455 61.0373 100.17 61.3311 101.082 61.9188C102.001 62.5 102.728 63.3621 103.264 64.5052C103.807 65.6418 104.078 67.0368 104.078 68.69C104.078 70.3239 103.813 71.7124 103.283 72.8554C102.754 73.9985 102.033 74.8703 101.12 75.4709C100.208 76.0715 99.1743 76.3718 98.0194 76.3718C97.1771 76.3718 96.4784 76.2298 95.9233 75.9456C95.3682 75.6615 94.9215 75.3192 94.5834 74.9188C94.2516 74.5119 93.9931 74.1277 93.8081 73.766H93.6645V81.69H90.1998ZM93.5975 68.6706C93.5975 69.6329 93.7315 70.4757 93.9995 71.199C94.2739 71.9223 94.6663 72.4873 95.1768 72.8942C95.6936 73.2946 96.3189 73.4948 97.0527 73.4948C97.8184 73.4948 98.4596 73.2881 98.9765 72.8748C99.4933 72.455 99.8825 71.8835 100.144 71.1602C100.412 70.4305 100.546 69.6006 100.546 68.6706C100.546 67.7471 100.415 66.927 100.154 66.2101C99.8921 65.4933 99.5029 64.9314 98.986 64.5246C98.4692 64.1177 97.8247 63.9143 97.0527 63.9143C96.3125 63.9143 95.684 64.1113 95.1672 64.5052C94.6504 64.8992 94.2579 65.4513 93.99 66.1617C93.7283 66.8721 93.5975 67.7084 93.5975 68.6706Z" fill="white"/>
<path d="M110.51 67.392V76.1103H107.045V56.2712H110.433V63.7593H110.605C110.95 62.9198 111.483 62.2578 112.204 61.7735C112.931 61.2827 113.856 61.0373 114.979 61.0373C116 61.0373 116.89 61.2536 117.65 61.6863C118.409 62.119 118.996 62.7519 119.411 63.5849C119.832 64.418 120.042 65.4352 120.042 66.6364V76.1103H116.578V67.1788C116.578 66.1778 116.322 65.3997 115.812 64.8443C115.308 64.2824 114.6 64.0015 113.687 64.0015C113.075 64.0015 112.526 64.1371 112.041 64.4083C111.562 64.6731 111.186 65.0574 110.912 65.5611C110.644 66.0648 110.51 66.6751 110.51 67.392Z" fill="white"/>
<path d="M122.15 78.0588C122.15 76.9826 123.012 76.1103 124.075 76.1103C125.138 76.1103 126 76.9826 126 78.0588C126 79.1349 125.138 80.0072 124.075 80.0072C123.012 80.0072 122.15 79.1349 122.15 78.0588Z" fill="#0177FB"/>
</svg>